<svg width="31" height="30" viewBox="0 0 31 30" fill="none" xmlns="http://www.w3.org/2000/svg">
<path d="M1 2.28571H6.78571C10.9278 2.28571 14.2857 5.64357 14.2857 9.78571V13.7857H8.5C4.35787 13.7857 1 10.4278 1 6.28571V2.28571Z" stroke="#897942" stroke-opacity="0.5"/>
<path d="M16.7143 16.2143H22.5C26.6421 16.2143 30 19.5722 30 23.7143V27.7143H24.2143C20.0722 27.7143 16.7143 24.3564 16.7143 20.2143V16.2143Z" stroke="#897942" stroke-opacity="0.5"/>
<path d="M16.7143 8C16.7143 3.85787 20.0722 0.5 24.2143 0.5H28.2143V6.28571C28.2143 10.4278 24.8564 13.7857 20.7143 13.7857H16.7143V8Z" stroke="#897942" stroke-opacity="0.5"/>
<path d="M2.78571 23.7143C2.78571 19.5722 6.14357 16.2143 10.2857 16.2143H14.2857V22C14.2857 26.1421 10.9278 29.5 6.78571 29.5H2.78571V23.7143Z" stroke="#897942" stroke-opacity="0.5"/>
</svg>
